<?xml version="1.0" encoding="UTF-8"?>
<svg xmlns="http://www.w3.org/2000/svg" width="95" height="158" viewBox="0 0 95 158" fill="none">
  <path d="M0 138V20.4H46.368C58.296 20.4 64.848 21.072 70.896 23.256C82.152 27.12 88.872 35.352 88.872 48.624C88.872 63.24 80.472 71.136 71.736 74.664V75C82.992 77.688 94.248 87.432 94.248 103.896C94.248 117.504 88.2 128.256 75.264 133.8C69.048 136.488 61.152 138 49.728 138H0ZM20.664 36.696V68.616H47.712C53.592 68.616 56.616 67.944 59.136 67.104C66.36 64.584 68.376 58.704 68.376 51.984C68.376 45.096 65.856 40.224 57.96 38.04C55.104 37.2 51.072 36.696 46.2 36.696H20.664ZM20.664 83.904V121.704H49.728C56.28 121.704 59.472 121.032 62.664 120.192C71.232 117 73.752 110.112 73.752 102.216C73.752 94.824 70.728 88.104 62.496 85.416C59.136 84.24 55.608 83.904 49.728 83.904H20.664Z" fill="#0D0D0D"></path>
  <path d="M29.9156 0H50.9156V21H29.9156V0Z" fill="#0D0D0D"></path>
  <path d="M29.9156 137H50.9156V158H29.9156V137Z" fill="#0D0D0D"></path>
</svg>
